<svg xmlns="http://www.w3.org/2000/svg" xmlns:xlink="http://www.w3.org/1999/xlink" width="348" height="348" viewBox="0 0 348 348">
  <defs>
    <filter id="Rectangle_432" x="0" y="0" width="348" height="348" filterUnits="userSpaceOnUse">
      <feOffset dy="3" input="SourceAlpha"/>
      <feGaussianBlur stdDeviation="3" result="blur"/>
      <feFlood flood-opacity="0.161"/>
      <feComposite operator="in" in2="blur"/>
      <feComposite in="SourceGraphic"/>
    </filter>
  </defs>
  <g id="Component_3_1" data-name="Component 3 – 1" transform="translate(9 6)">
    <g transform="matrix(1, 0, 0, 1, -9, -6)" filter="url(#Rectangle_432)">
      <rect id="Rectangle_432-2" data-name="Rectangle 432" width="330" height="330" transform="translate(9 6)" fill="none"/>
    </g>
    <g id="Group" transform="translate(-67 -26.5)">
      <g id="Rectangle_3" data-name="Rectangle 3" transform="translate(117 206.5)" fill="none" stroke="#fff" stroke-miterlimit="10" stroke-width="20">
        <rect width="100" height="100" stroke="none"/>
        <rect x="10" y="10" width="80" height="80" fill="none"/>
      </g>
      <g id="Triangle" transform="translate(117 76)" fill="none" stroke-miterlimit="10">
        <path d="M50,.5l50,100H0Z" stroke="none"/>
        <path d="M 50 45.22137451171875 L 32.36068725585938 80.5 L 67.63931274414063 80.5 L 50 45.22137451171875 M 50 0.5 L 100 100.5 L 0 100.5 L 50 0.5 Z" stroke="none" fill="#fff"/>
      </g>
      <g id="Oval" transform="translate(247 206)" fill="none">
        <path d="M50,.5a50,50,0,1,1-50,50A50,50,0,0,1,50,.5Z" stroke="none"/>
        <path d="M 50 20.5 C 33.45793151855469 20.5 20 33.95793151855469 20 50.5 C 20 67.04206848144531 33.45793151855469 80.5 50 80.5 C 66.54206848144531 80.5 80 67.04206848144531 80 50.5 C 80 33.95793151855469 66.54206848144531 20.5 50 20.5 M 50 0.5 C 77.61423492431641 0.5 100 22.88576507568359 100 50.5 C 100 78.11423492431641 77.61423492431641 100.5 50 100.5 C 22.38576507568359 100.5 0 78.11423492431641 0 50.5 C 0 22.88576507568359 22.38576507568359 0.5 50 0.5 Z" stroke="none" fill="#fff"/>
      </g>
      <g id="Group_27" data-name="Group 27" transform="translate(820 -35)">
        <rect id="Rectangle_1" data-name="Rectangle 1" width="20.848" height="118.6" transform="translate(-488.509 111.628) rotate(45)" fill="#fff"/>
        <rect id="Rectangle_2" data-name="Rectangle 2" width="20.836" height="120.586" transform="translate(-573.372 125.925) rotate(-45)" fill="#fff"/>
      </g>
    </g>
  </g>
</svg>
